<svg width="40" height="43" viewBox="0 0 40 43" fill="none" xmlns="http://www.w3.org/2000/svg">
<g filter="url(#filter0_d_1_1882)">
<circle cx="19.8431" cy="19.8431" r="19.8431" fill="#FF4672"/>
<circle cx="19.8431" cy="19.8431" r="18.3431" stroke="white" stroke-width="3"/>
</g>
<mask id="path-3-inside-1_1_1882" fill="white">
<path fill-rule="evenodd" clip-rule="evenodd" d="M28.6994 11.8337C27.4438 10.5252 25.3652 10.4822 24.0567 11.7378L19.8663 15.7587L15.6759 11.7378C14.3673 10.4822 12.2887 10.5252 11.0332 11.8337C9.77758 13.1422 9.8205 15.2208 11.129 16.4764L15.1236 20.3094L10.9318 24.3316C9.62329 25.5871 9.58036 27.6658 10.8359 28.9743C12.0915 30.2828 14.1701 30.3257 15.4786 29.0702L19.8663 24.8601L24.2539 29.0702C25.5624 30.3257 27.641 30.2828 28.8966 28.9743C30.1522 27.6658 30.1092 25.5871 28.8007 24.3316L24.6089 20.3094L28.6035 16.4764C29.912 15.2208 29.955 13.1422 28.6994 11.8337Z"/>
</mask>
<path fill-rule="evenodd" clip-rule="evenodd" d="M28.6994 11.8337C27.4438 10.5252 25.3652 10.4822 24.0567 11.7378L19.8663 15.7587L15.6759 11.7378C14.3673 10.4822 12.2887 10.5252 11.0332 11.8337C9.77758 13.1422 9.8205 15.2208 11.129 16.4764L15.1236 20.3094L10.9318 24.3316C9.62329 25.5871 9.58036 27.6658 10.8359 28.9743C12.0915 30.2828 14.1701 30.3257 15.4786 29.0702L19.8663 24.8601L24.2539 29.0702C25.5624 30.3257 27.641 30.2828 28.8966 28.9743C30.1522 27.6658 30.1092 25.5871 28.8007 24.3316L24.6089 20.3094L28.6035 16.4764C29.912 15.2208 29.955 13.1422 28.6994 11.8337Z" fill="white"/>
<path d="M24.0567 11.7378L24.749 12.4594L24.0567 11.7378ZM28.6994 11.8337L27.9778 12.5261L28.6994 11.8337ZM19.8663 15.7587L19.1739 16.4802L19.8663 17.1445L20.5586 16.4802L19.8663 15.7587ZM15.6759 11.7378L14.9835 12.4594L15.6759 11.7378ZM11.0332 11.8337L11.7547 12.5261V12.5261L11.0332 11.8337ZM11.129 16.4764L11.8214 15.7548H11.8214L11.129 16.4764ZM15.1236 20.3094L15.816 21.0309L16.568 20.3094L15.816 19.5878L15.1236 20.3094ZM10.9318 24.3316L10.2395 23.61H10.2395L10.9318 24.3316ZM10.8359 28.9743L11.5575 28.2819H11.5575L10.8359 28.9743ZM15.4786 29.0702L14.7863 28.3486H14.7863L15.4786 29.0702ZM19.8663 24.8601L20.5586 24.1385L19.8663 23.4742L19.1739 24.1385L19.8663 24.8601ZM24.2539 29.0702L24.9462 28.3486L24.2539 29.0702ZM28.8966 28.9743L28.175 28.2819L28.175 28.2819L28.8966 28.9743ZM28.8007 24.3316L28.1084 25.0531L28.8007 24.3316ZM24.6089 20.3094L23.9165 19.5878L23.1646 20.3094L23.9165 21.0309L24.6089 20.3094ZM28.6035 16.4764L27.9111 15.7548L28.6035 16.4764ZM24.749 12.4594C25.659 11.5862 27.1046 11.616 27.9778 12.5261L29.4209 11.1413C27.783 9.43431 25.0713 9.37832 23.3643 11.0163L24.749 12.4594ZM20.5586 16.4802L24.749 12.4594L23.3643 11.0163L19.1739 15.0371L20.5586 16.4802ZM20.5586 15.0371L16.3682 11.0163L14.9835 12.4594L19.1739 16.4802L20.5586 15.0371ZM16.3682 11.0163C14.6612 9.37831 11.9495 9.43431 10.3116 11.1413L11.7547 12.5261C12.6279 11.616 14.0735 11.5862 14.9835 12.4594L16.3682 11.0163ZM10.3116 11.1413C8.67364 12.8484 8.72964 15.56 10.4367 17.198L11.8214 15.7548C10.9114 14.8817 10.8815 13.4361 11.7547 12.5261L10.3116 11.1413ZM10.4367 17.198L14.4313 21.0309L15.816 19.5878L11.8214 15.7548L10.4367 17.198ZM11.6242 25.0531L15.816 21.0309L14.4313 19.5878L10.2395 23.61L11.6242 25.0531ZM11.5575 28.2819C10.6843 27.3719 10.7141 25.9263 11.6242 25.0531L10.2395 23.61C8.53242 25.248 8.47643 27.9596 10.1144 29.6666L11.5575 28.2819ZM14.7863 28.3486C13.8763 29.2218 12.4307 29.1919 11.5575 28.2819L10.1144 29.6666C11.7523 31.3737 14.464 31.4297 16.171 29.7917L14.7863 28.3486ZM19.1739 24.1385L14.7863 28.3486L16.171 29.7917L20.5586 25.5816L19.1739 24.1385ZM19.1739 25.5816L23.5615 29.7917L24.9462 28.3486L20.5586 24.1385L19.1739 25.5816ZM23.5615 29.7917C25.2686 31.4297 27.9802 31.3737 29.6181 29.6666L28.175 28.2819C27.3018 29.1919 25.8563 29.2218 24.9462 28.3486L23.5615 29.7917ZM29.6181 29.6666C31.2561 27.9596 31.2001 25.248 29.4931 23.61L28.1084 25.0531C29.0184 25.9263 29.0482 27.3719 28.175 28.2819L29.6181 29.6666ZM29.4931 23.61L25.3013 19.5878L23.9165 21.0309L28.1084 25.0531L29.4931 23.61ZM27.9111 15.7548L23.9165 19.5878L25.3013 21.0309L29.2959 17.198L27.9111 15.7548ZM27.9778 12.5261C28.851 13.4361 28.8212 14.8817 27.9111 15.7548L29.2959 17.198C31.0029 15.56 31.0589 12.8484 29.4209 11.1413L27.9778 12.5261Z" fill="#E90038" mask="url(#path-3-inside-1_1_1882)"/>
<defs>
<filter id="filter0_d_1_1882" x="0" y="0" width="39.6863" height="42.6863" filterUnits="userSpaceOnUse" color-interpolation-filters="sRGB">
<feFlood flood-opacity="0" result="BackgroundImageFix"/>
<feColorMatrix in="SourceAlpha" type="matrix" values="0 0 0 0 0 0 0 0 0 0 0 0 0 0 0 0 0 0 127 0" result="hardAlpha"/>
<feOffset dy="3"/>
<feComposite in2="hardAlpha" operator="out"/>
<feColorMatrix type="matrix" values="0 0 0 0 1 0 0 0 0 0.15 0 0 0 0 0.352162 0 0 0 1 0"/>
<feBlend mode="normal" in2="BackgroundImageFix" result="effect1_dropShadow_1_1882"/>
<feBlend mode="normal" in="SourceGraphic" in2="effect1_dropShadow_1_1882" result="shape"/>
</filter>
</defs>
</svg>
