<svg width="40" height="43" viewBox="0 0 40 43" fill="none" xmlns="http://www.w3.org/2000/svg">
<g filter="url(#filter0_d_1_1900)">
<circle cx="19.8431" cy="19.8431" r="19.8431" fill="#4CDAFE"/>
<circle cx="19.8431" cy="19.8431" r="18.3431" stroke="white" stroke-width="3"/>
</g>
<path d="M17.479 10.4148L17.479 10.4148L10.3831 17.7338C10.3831 17.7339 10.383 17.734 10.3829 17.734C10.3829 17.7341 10.3829 17.7341 10.3829 17.7341C9.76133 18.3743 9.42163 19.2239 9.42163 20.1224C9.42163 21.0203 9.76067 21.8706 10.3781 22.505C10.8947 23.0388 11.5568 23.3748 12.2741 23.4727V27.031C12.2741 28.8019 13.6705 30.2647 15.4248 30.2647H24.2617C26.016 30.2647 27.4124 28.8019 27.4124 27.031V23.4729C28.1287 23.3754 28.7903 23.0407 29.3059 22.5069C30.5845 21.1901 30.5842 19.0533 29.3061 17.7354L22.2128 10.4206C22.2126 10.4204 22.2124 10.4202 22.2122 10.4201C21.5927 9.77729 20.7614 9.42157 19.8743 9.42157H19.8113C18.9279 9.42157 18.0985 9.77579 17.479 10.4148ZM20.9996 26.4122C20.9996 26.9441 20.52 27.4424 19.8423 27.4424C19.1655 27.4424 18.6859 26.9444 18.6859 26.4122V24.5896C18.6859 24.0575 19.1653 23.5595 19.8423 23.5595C20.5198 23.5595 20.9996 24.0576 20.9996 24.5896V26.4122Z" fill="white" stroke="#00ADE3"/>
<defs>
<filter id="filter0_d_1_1900" x="0" y="0" width="39.6863" height="42.6863" filterUnits="userSpaceOnUse" color-interpolation-filters="sRGB">
<feFlood flood-opacity="0" result="BackgroundImageFix"/>
<feColorMatrix in="SourceAlpha" type="matrix" values="0 0 0 0 0 0 0 0 0 0 0 0 0 0 0 0 0 0 127 0" result="hardAlpha"/>
<feOffset dy="3"/>
<feComposite in2="hardAlpha" operator="out"/>
<feColorMatrix type="matrix" values="0 0 0 0 0.00392157 0 0 0 0 0.705882 0 0 0 0 0.929412 0 0 0 1 0"/>
<feBlend mode="normal" in2="BackgroundImageFix" result="effect1_dropShadow_1_1900"/>
<feBlend mode="normal" in="SourceGraphic" in2="effect1_dropShadow_1_1900" result="shape"/>
</filter>
</defs>
</svg>
