<svg width="22" height="22" viewBox="0 0 22 22" fill="none" xmlns="http://www.w3.org/2000/svg">
<path d="M20.7876 11.3562C20.7876 16.9585 16.246 21.5 10.6438 21.5C5.04152 21.5 0.5 16.9585 0.5 11.3562C0.5 5.75399 5.04152 1.21246 10.6438 1.21246C16.246 1.21246 20.7876 5.75399 20.7876 11.3562Z" stroke="white"/>
<path fill-rule="evenodd" clip-rule="evenodd" d="M11 8C12.1046 8 13 7.10457 13 6C13 4.89543 12.1046 4 11 4C9.89543 4 9 4.89543 9 6C9 7.10457 9.89543 8 11 8ZM10 9C9.44772 9 9 9.44772 9 10V17C9 17.5523 9.44772 18 10 18H12C12.5523 18 13 17.5523 13 17V10C13 9.44772 12.5523 9 12 9H10Z" fill="white"/>
</svg>
