<svg width="22" height="22" viewBox="0 0 22 22" fill="none" xmlns="http://www.w3.org/2000/svg">
<path d="M20.7876 10.6438C20.7876 16.246 16.246 20.7876 10.6438 20.7876C5.04152 20.7876 0.5 16.246 0.5 10.6438C0.5 5.04152 5.04152 0.5 10.6438 0.5C16.246 0.5 20.7876 5.04152 20.7876 10.6438Z" stroke="white"/>
<path d="M13.8632 12.8784C13.5801 13.1048 13.1556 13.0765 12.9151 12.7794C12.6745 12.4822 12.7311 12.0577 13.0283 11.8171C13.4103 11.5058 13.6509 11.0247 13.6509 10.5011C13.6509 9.93503 13.382 9.43975 12.9575 9.12843C12.6886 8.93032 12.6462 8.5341 12.8584 8.27938L12.9151 8.22278C13.1415 7.95391 13.566 7.89731 13.8349 8.10957C14.5424 8.66145 14.9952 9.53881 14.9952 10.5011C14.9952 11.4633 14.5566 12.3124 13.8632 12.8784Z" fill="white"/>
<path d="M15.4056 14.7746C15.1226 15.001 14.7122 14.9444 14.4717 14.6756C14.2453 14.3925 14.2736 13.968 14.5566 13.7416C15.4905 12.9633 16.099 11.8029 16.099 10.5011C16.099 9.19918 15.4905 8.02465 14.5566 7.26051C14.2736 7.03409 14.2453 6.60957 14.4717 6.32655C14.6981 6.04353 15.1226 5.98693 15.4056 6.21334C16.6509 7.21805 17.4575 8.7605 17.4575 10.4869C17.4434 12.2275 16.6509 13.7699 15.4056 14.7746Z" fill="white"/>
<path d="M9.91506 15.8077L6.4764 13.1614H4.79245C4.35377 13.1614 4 12.8077 4 12.369V8.63317C4 8.19449 4.35377 7.84072 4.79245 7.84072H6.4764L9.92922 5.1945C10.5377 4.72753 11.4009 5.15205 11.4009 5.93035V15.086C11.4009 15.836 10.5236 16.2746 9.91506 15.8077Z" fill="white"/>
</svg>
