<svg width="22" height="22" viewBox="0 0 22 22" fill="none" xmlns="http://www.w3.org/2000/svg">
<path d="M20.7876 11C20.7876 16.6022 16.246 21.1438 10.6438 21.1438C5.04152 21.1438 0.5 16.6022 0.5 11C0.5 5.39773 5.04152 0.856201 10.6438 0.856201C16.246 0.856201 20.7876 5.39773 20.7876 11Z" stroke="white"/>
<path d="M5.92238 13.649C5.51276 13.4282 5.23437 12.9953 5.23437 12.4974V8.57552C5.23437 7.85352 5.81966 7.26823 6.54166 7.26823H8.91959L12.4779 4.303C12.7128 4.10722 13.0089 4 13.3148 4H13.7318C14.4538 4 15.039 4.58529 15.039 5.30729V6.00287L5.92238 13.649ZM15.039 9.41528V15.7656C15.039 16.4876 14.4538 17.0729 13.7318 17.0729H13.3148C13.0089 17.0729 12.7128 16.9657 12.4779 16.7699L9.36394 14.175L15.039 9.41528ZM5.0737 16.9201C4.7971 17.1521 4.38482 17.1159 4.15284 16.8393C3.92086 16.5627 3.95703 16.1504 4.23362 15.9184L15.9263 6.11183C16.2029 5.87985 16.6152 5.91602 16.8472 6.19262C17.0791 6.46921 17.043 6.8815 16.7664 7.11348L5.0737 16.9201Z" fill="white"/>
</svg>
