<svg width="40" height="43" viewBox="0 0 40 43" fill="none" xmlns="http://www.w3.org/2000/svg">
<g filter="url(#filter0_d_1_1903)">
<circle cx="19.8431" cy="19.8431" r="19.8431" fill="#92F200"/>
<circle cx="19.8431" cy="19.8431" r="18.3431" stroke="white" stroke-width="3"/>
</g>
<path d="M20.0556 10.6449C19.9848 10.6434 19.9142 10.6427 19.8437 10.6427C14.0969 10.6427 9.42163 15.3166 9.42163 21.0626C9.42163 26.8091 14.0969 31.4827 19.8437 31.4827C25.5905 31.4825 30.2648 26.8088 30.2648 21.0624V20.7224V20.379L30.2324 20.3665C30.0555 19.1017 28.9681 18.1279 27.6545 18.1279C26.2162 18.1279 25.0491 19.2927 25.0491 20.7317C25.0491 20.8191 25.0542 20.9058 25.0629 20.9894V21.0624C25.0629 23.9398 22.7215 26.2814 19.8442 26.2814C16.967 26.2814 14.6251 23.9397 14.6251 21.0624C14.6251 18.1866 16.967 15.8438 19.8442 15.8438C19.9148 15.8438 19.9854 15.8453 20.0561 15.8481V16.2506V16.2644V16.7506H20.1145C20.3326 17.6407 21.1362 18.3017 22.094 18.3017C22.738 18.3017 23.3038 17.9998 23.6737 17.5422L26.3168 14.892C26.722 14.5223 26.9861 13.9908 26.9861 13.3897C26.9861 12.713 26.6556 12.1177 26.153 11.749L23.6028 9.19529C23.5564 9.14207 23.5089 9.095 23.4619 9.05271L23.4267 9.01772L23.2804 8.87221H23.2304C22.9089 8.65292 22.5198 8.51959 22.0938 8.51959C21.0988 8.51959 20.2826 9.23189 20.1011 10.1673L20.0556 10.202V10.4496V10.6449Z" fill="white" stroke="#39BD01"/>
<defs>
<filter id="filter0_d_1_1903" x="0" y="0" width="39.6863" height="42.6863" filterUnits="userSpaceOnUse" color-interpolation-filters="sRGB">
<feFlood flood-opacity="0" result="BackgroundImageFix"/>
<feColorMatrix in="SourceAlpha" type="matrix" values="0 0 0 0 0 0 0 0 0 0 0 0 0 0 0 0 0 0 127 0" result="hardAlpha"/>
<feOffset dy="3"/>
<feComposite in2="hardAlpha" operator="out"/>
<feColorMatrix type="matrix" values="0 0 0 0 0.225553 0 0 0 0 0.741667 0 0 0 0 0.00309026 0 0 0 1 0"/>
<feBlend mode="normal" in2="BackgroundImageFix" result="effect1_dropShadow_1_1903"/>
<feBlend mode="normal" in="SourceGraphic" in2="effect1_dropShadow_1_1903" result="shape"/>
</filter>
</defs>
</svg>
