<svg width="23" height="23" viewBox="0 0 23 23" fill="none" xmlns="http://www.w3.org/2000/svg">
<circle cx="11.5" cy="11.5" r="11.5" fill="white" fill-opacity="0.45"/>
<path d="M18.9838 12.2625L18.9904 11.1953L20.7893 9.48375C21.0175 9.26897 21.0644 8.93338 20.9101 8.6649L18.9301 5.1613C18.7757 4.89282 18.4669 4.7653 18.1649 4.84584L15.7755 5.51032L14.7687 4.91967L14.1646 2.5101C14.0908 2.21478 13.8223 2 13.5136 2H9.48643C9.17769 2 8.90921 2.21478 8.83538 2.5101L8.23131 4.91967L7.22453 5.51032L4.83509 4.84584C4.53306 4.7653 4.22431 4.89282 4.06994 5.1613L2.08993 8.6649C1.93556 8.93338 1.98254 9.26897 2.21075 9.48375L4.00953 11.1953L4.01624 12.2625L2.23759 13.9941C2.0161 14.2089 1.96912 14.5445 2.12349 14.813L4.15719 18.2898C4.31157 18.5582 4.62703 18.6858 4.92235 18.5985L7.30507 17.9072L8.23131 18.4374L8.83538 20.847C8.90921 21.1423 9.17762 21.3571 9.48643 21.3571H13.5136C13.8223 21.3571 14.0908 21.1423 14.1646 20.847L14.7687 18.4374L15.6949 17.9072L18.0776 18.5985C18.373 18.6858 18.6884 18.5582 18.8428 18.2898L20.8765 14.813C21.0309 14.5445 20.9839 14.2089 20.7624 13.9941L18.9838 12.2625ZM11.5 15.4842C9.40589 15.4842 7.69436 13.7727 7.69436 11.6785C7.69436 9.58443 9.40589 7.8729 11.5 7.8729C13.5941 7.8729 15.3056 9.58443 15.3056 11.6785C15.3056 13.7727 13.5941 15.4842 11.5 15.4842Z" fill="white"/>
</svg>
