<svg width="119" height="57" viewBox="0 0 119 57" fill="none" xmlns="http://www.w3.org/2000/svg">
<mask id="path-1-outside-1_1_2031" maskUnits="userSpaceOnUse" x="36.1511" y="0.385826" width="48" height="49" fill="black">
<rect fill="white" x="36.1511" y="0.385826" width="48" height="49"/>
<path fill-rule="evenodd" clip-rule="evenodd" d="M63.442 4.61556C61.9747 1.64258 57.7353 1.64258 56.2681 4.61556L52.66 11.9264C52.0773 13.107 50.9511 13.9252 49.6482 14.1146L41.5802 15.2869C38.9716 15.666 37.6089 18.2925 38.3533 20.5162C37.9095 21.8745 38.1744 23.4642 39.3634 24.6232L45.2014 30.3138C45.6914 30.7915 46.0429 31.3785 46.2363 32.0143L44.9736 39.3763C44.8604 40.0367 44.9101 40.6655 45.0858 41.2357L44.9736 41.8897C44.4132 45.1574 47.8429 47.6492 50.7774 46.1065L57.9937 42.3127C59.1589 41.7 60.5511 41.7 61.7164 42.3127L68.9326 46.1065C71.8671 47.6492 75.2968 45.1574 74.7364 41.8897L74.6242 41.2357C74.7999 40.6655 74.8497 40.0367 74.7364 39.3763L73.4737 32.0143C73.6671 31.3785 74.0186 30.7915 74.5086 30.3139L80.3466 24.6232C81.5356 23.4642 81.8005 21.8745 81.3567 20.5162C82.1011 18.2925 80.7384 15.666 78.1298 15.2869L70.0618 14.1146C68.759 13.9252 67.6327 13.107 67.0501 11.9264L63.442 4.61556Z"/>
</mask>
<path fill-rule="evenodd" clip-rule="evenodd" d="M63.442 4.61556C61.9747 1.64258 57.7353 1.64258 56.2681 4.61556L52.66 11.9264C52.0773 13.107 50.9511 13.9252 49.6482 14.1146L41.5802 15.2869C38.9716 15.666 37.6089 18.2925 38.3533 20.5162C37.9095 21.8745 38.1744 23.4642 39.3634 24.6232L45.2014 30.3138C45.6914 30.7915 46.0429 31.3785 46.2363 32.0143L44.9736 39.3763C44.8604 40.0367 44.9101 40.6655 45.0858 41.2357L44.9736 41.8897C44.4132 45.1574 47.8429 47.6492 50.7774 46.1065L57.9937 42.3127C59.1589 41.7 60.5511 41.7 61.7164 42.3127L68.9326 46.1065C71.8671 47.6492 75.2968 45.1574 74.7364 41.8897L74.6242 41.2357C74.7999 40.6655 74.8497 40.0367 74.7364 39.3763L73.4737 32.0143C73.6671 31.3785 74.0186 30.7915 74.5086 30.3139L80.3466 24.6232C81.5356 23.4642 81.8005 21.8745 81.3567 20.5162C82.1011 18.2925 80.7384 15.666 78.1298 15.2869L70.0618 14.1146C68.759 13.9252 67.6327 13.107 67.0501 11.9264L63.442 4.61556Z" fill="#7A54FD"/>
<path d="M56.2681 4.61556L58.0615 5.50069V5.50069L56.2681 4.61556ZM63.442 4.61556L65.2354 3.73043V3.73043L63.442 4.61556ZM52.66 11.9264L50.8665 11.0413V11.0413L52.66 11.9264ZM49.6482 14.1146L49.3606 12.1353L49.6482 14.1146ZM41.5802 15.2869L41.8678 17.2661H41.8678L41.5802 15.2869ZM38.3533 20.5162L40.2544 21.1374L40.4599 20.5086L40.2499 19.8813L38.3533 20.5162ZM39.3634 24.6232L40.7594 23.191L39.3634 24.6232ZM45.2014 30.3138L46.5975 28.8817L46.5975 28.8817L45.2014 30.3138ZM46.2363 32.0143L48.2075 32.3524L48.2876 31.8855L48.1498 31.4323L46.2363 32.0143ZM44.9736 39.3763L46.9449 39.7143L44.9736 39.3763ZM45.0858 41.2357L47.057 41.5738L47.1378 41.1031L46.9971 40.6467L45.0858 41.2357ZM44.9736 41.8897L43.0024 41.5517V41.5517L44.9736 41.8897ZM50.7774 46.1065L51.7081 47.8767L50.7774 46.1065ZM57.9937 42.3127L57.063 40.5424L57.9937 42.3127ZM61.7164 42.3127L60.7857 44.0829H60.7857L61.7164 42.3127ZM68.9326 46.1065L68.0019 47.8767L68.9326 46.1065ZM74.7364 41.8897L72.7652 42.2278V42.2278L74.7364 41.8897ZM74.6242 41.2357L72.7129 40.6467L72.5723 41.1031L72.653 41.5738L74.6242 41.2357ZM74.7364 39.3763L76.7076 39.0382L74.7364 39.3763ZM73.4737 32.0143L71.5603 31.4324L71.4224 31.8855L71.5025 32.3524L73.4737 32.0143ZM74.5086 30.3139L73.1126 28.8817L74.5086 30.3139ZM80.3466 24.6232L81.7427 26.0553V26.0553L80.3466 24.6232ZM81.3567 20.5162L79.4602 19.8813L79.2501 20.5086L79.4556 21.1374L81.3567 20.5162ZM78.1298 15.2869L77.8422 17.2661L78.1298 15.2869ZM70.0618 14.1146L69.7742 16.0938L70.0618 14.1146ZM67.0501 11.9264L65.2566 12.8115V12.8115L67.0501 11.9264ZM58.0615 5.50069C58.7952 4.0142 60.9149 4.0142 61.6485 5.50069L65.2354 3.73043C63.0346 -0.729042 56.6755 -0.729043 54.4746 3.73043L58.0615 5.50069ZM54.4534 12.8115L58.0615 5.50069L54.4746 3.73043L50.8665 11.0413L54.4534 12.8115ZM49.9358 16.0938C51.8901 15.8098 53.5795 14.5824 54.4534 12.8115L50.8665 11.0413C50.5752 11.6315 50.012 12.0407 49.3606 12.1353L49.9358 16.0938ZM41.8678 17.2661L49.9358 16.0938L49.3606 12.1353L41.2926 13.3077L41.8678 17.2661ZM40.2499 19.8813C39.8707 18.7485 40.5868 17.4523 41.8678 17.2661L41.2926 13.3077C37.3564 13.8797 35.3471 17.8366 36.4568 21.1511L40.2499 19.8813ZM40.7594 23.191C40.1629 22.6095 40.0266 21.8347 40.2544 21.1374L36.4523 19.895C35.7924 21.9143 36.186 24.3189 37.9674 26.0553L40.7594 23.191ZM46.5975 28.8817L40.7594 23.191L37.9674 26.0553L43.8054 31.746L46.5975 28.8817ZM48.1498 31.4323C47.8598 30.4789 47.3324 29.5981 46.5975 28.8817L43.8054 31.746C44.0504 31.9848 44.2261 32.2781 44.3229 32.5963L48.1498 31.4323ZM46.9449 39.7143L48.2075 32.3524L44.2651 31.6762L43.0024 39.0382L46.9449 39.7143ZM46.9971 40.6467C46.9135 40.3754 46.8849 40.0642 46.9449 39.7143L43.0024 39.0382C42.8359 40.0093 42.9067 40.9556 43.1745 41.8247L46.9971 40.6467ZM46.9449 42.2278L47.057 41.5738L43.1146 40.8976L43.0024 41.5517L46.9449 42.2278ZM49.8468 44.3362C48.3795 45.1076 46.6646 43.8616 46.9449 42.2278L43.0024 41.5517C42.1618 46.4531 47.3064 50.1909 51.7081 47.8767L49.8468 44.3362ZM57.063 40.5424L49.8468 44.3362L51.7081 47.8767L58.9243 44.0829L57.063 40.5424ZM62.6471 40.5424C60.8991 39.6235 58.8109 39.6235 57.063 40.5424L58.9243 44.0829C59.507 43.7766 60.203 43.7766 60.7857 44.0829L62.6471 40.5424ZM69.8633 44.3362L62.6471 40.5424L60.7857 44.0829L68.0019 47.8767L69.8633 44.3362ZM72.7652 42.2278C73.0454 43.8616 71.3305 45.1076 69.8633 44.3362L68.0019 47.8767C72.4037 50.1909 77.5483 46.4531 76.7076 41.5517L72.7652 42.2278ZM72.653 41.5738L72.7652 42.2278L76.7076 41.5517L76.5954 40.8976L72.653 41.5738ZM72.7652 39.7143C72.8252 40.0642 72.7965 40.3754 72.7129 40.6467L76.5355 41.8247C76.8033 40.9556 76.8742 40.0093 76.7076 39.0382L72.7652 39.7143ZM71.5025 32.3524L72.7652 39.7143L76.7076 39.0382L75.4449 31.6762L71.5025 32.3524ZM73.1126 28.8817C72.3776 29.5981 71.8503 30.4789 71.5603 31.4324L75.3872 32.5963C75.484 32.2781 75.6596 31.9848 75.9046 31.746L73.1126 28.8817ZM78.9506 23.191L73.1126 28.8817L75.9046 31.746L81.7427 26.0553L78.9506 23.191ZM79.4556 21.1374C79.6835 21.8347 79.5471 22.6095 78.9506 23.191L81.7427 26.0553C83.524 24.3189 83.9176 21.9143 83.2578 19.895L79.4556 21.1374ZM77.8422 17.2661C79.1232 17.4523 79.8394 18.7485 79.4602 19.8813L83.2532 21.1511C84.3629 17.8366 82.3537 13.8797 78.4174 13.3077L77.8422 17.2661ZM69.7742 16.0938L77.8422 17.2661L78.4174 13.3077L70.3494 12.1353L69.7742 16.0938ZM65.2566 12.8115C66.1306 14.5824 67.82 15.8098 69.7742 16.0938L70.3494 12.1353C69.698 12.0407 69.1349 11.6315 68.8435 11.0413L65.2566 12.8115ZM61.6485 5.50069L65.2566 12.8115L68.8435 11.0413L65.2354 3.73043L61.6485 5.50069Z" fill="white" mask="url(#path-1-outside-1_1_2031)"/>
<mask id="path-3-outside-2_1_2031" maskUnits="userSpaceOnUse" x="0.60321" y="17.3913" width="39" height="40" fill="black">
<rect fill="white" x="0.60321" y="17.3913" width="39" height="40"/>
<path fill-rule="evenodd" clip-rule="evenodd" d="M23.5115 21.6211C22.0443 18.6481 17.8049 18.6481 16.3376 21.6211L14.0838 26.1878C13.5012 27.3684 12.3749 28.1866 11.0721 28.376L6.03239 29.1083C3.50431 29.4756 2.14641 31.9538 2.74252 34.1305C2.39142 35.4397 2.68789 36.9264 3.81554 38.0256L7.46229 41.5803C7.99272 42.0973 8.3609 42.7426 8.54184 43.4393L7.75179 48.0456C7.64883 48.6459 7.68054 49.22 7.8191 49.7477L7.75179 50.1402C7.19135 53.4078 10.6211 55.8996 13.5556 54.3569L18.0632 51.9871C19.2285 51.3744 20.6207 51.3744 21.786 51.9871L26.2936 54.3569C29.2281 55.8996 32.6578 53.4078 32.0974 50.1402L32.0301 49.7477C32.1686 49.22 32.2003 48.6459 32.0974 48.0456L31.3073 43.4393C31.4883 42.7426 31.8565 42.0973 32.3869 41.5803L36.0336 38.0256C37.1613 36.9264 37.4578 35.4397 37.1067 34.1305C37.7028 31.9538 36.3449 29.4756 33.8168 29.1083L28.7771 28.376C27.4743 28.1866 26.348 27.3684 25.7654 26.1878L23.5115 21.6211Z"/>
</mask>
<path fill-rule="evenodd" clip-rule="evenodd" d="M23.5115 21.6211C22.0443 18.6481 17.8049 18.6481 16.3376 21.6211L14.0838 26.1878C13.5012 27.3684 12.3749 28.1866 11.0721 28.376L6.03239 29.1083C3.50431 29.4756 2.14641 31.9538 2.74252 34.1305C2.39142 35.4397 2.68789 36.9264 3.81554 38.0256L7.46229 41.5803C7.99272 42.0973 8.3609 42.7426 8.54184 43.4393L7.75179 48.0456C7.64883 48.6459 7.68054 49.22 7.8191 49.7477L7.75179 50.1402C7.19135 53.4078 10.6211 55.8996 13.5556 54.3569L18.0632 51.9871C19.2285 51.3744 20.6207 51.3744 21.786 51.9871L26.2936 54.3569C29.2281 55.8996 32.6578 53.4078 32.0974 50.1402L32.0301 49.7477C32.1686 49.22 32.2003 48.6459 32.0974 48.0456L31.3073 43.4393C31.4883 42.7426 31.8565 42.0973 32.3869 41.5803L36.0336 38.0256C37.1613 36.9264 37.4578 35.4397 37.1067 34.1305C37.7028 31.9538 36.3449 29.4756 33.8168 29.1083L28.7771 28.376C27.4743 28.1866 26.348 27.3684 25.7654 26.1878L23.5115 21.6211Z" fill="#7A54FD"/>
<path d="M16.3376 21.6211L18.1311 22.5062V22.5062L16.3376 21.6211ZM23.5115 21.6211L21.7181 22.5062V22.5062L23.5115 21.6211ZM14.0838 26.1878L15.8773 27.0729L14.0838 26.1878ZM11.0721 28.376L10.7845 26.3967L11.0721 28.376ZM6.03239 29.1083L6.31998 31.0875L6.03239 29.1083ZM2.74252 34.1305L4.67426 34.6485L4.81466 34.125L4.67149 33.6022L2.74252 34.1305ZM3.81554 38.0256L2.41951 39.4578H2.41951L3.81554 38.0256ZM7.46229 41.5803L8.85831 40.1481L7.46229 41.5803ZM8.54184 43.4393L10.5131 43.7774L10.5858 43.3531L10.4776 42.9365L8.54184 43.4393ZM7.75179 48.0456L5.78057 47.7075V47.7075L7.75179 48.0456ZM7.8191 49.7477L9.79032 50.0858L9.86355 49.6588L9.75353 49.2398L7.8191 49.7477ZM7.75179 50.1402L5.78057 49.8021H5.78057L7.75179 50.1402ZM13.5556 54.3569L12.6249 52.5866L13.5556 54.3569ZM18.0632 51.9871L18.9939 53.7573L18.9939 53.7573L18.0632 51.9871ZM21.786 51.9871L20.8553 53.7573H20.8553L21.786 51.9871ZM26.2936 54.3569L27.2243 52.5866H27.2243L26.2936 54.3569ZM32.0974 50.1402L34.0686 49.8021V49.8021L32.0974 50.1402ZM32.0301 49.7477L30.0956 49.2398L29.9856 49.6588L30.0589 50.0858L32.0301 49.7477ZM32.0974 48.0456L30.1262 48.3837V48.3837L32.0974 48.0456ZM31.3073 43.4393L29.3716 42.9365L29.2634 43.3531L29.3361 43.7774L31.3073 43.4393ZM32.3869 41.5803L33.7829 43.0125L33.7829 43.0125L32.3869 41.5803ZM36.0336 38.0256L34.6376 36.5934L36.0336 38.0256ZM37.1067 34.1305L35.1777 33.6022L35.0345 34.125L35.1749 34.6485L37.1067 34.1305ZM33.8168 29.1083L34.1044 27.1291H34.1044L33.8168 29.1083ZM28.7771 28.376L29.0647 26.3967L28.7771 28.376ZM25.7654 26.1878L27.5588 25.3027V25.3027L25.7654 26.1878ZM18.1311 22.5062C18.8647 21.0197 20.9844 21.0197 21.7181 22.5062L25.305 20.7359C23.1041 16.2764 16.7451 16.2765 14.5442 20.7359L18.1311 22.5062ZM15.8773 27.0729L18.1311 22.5062L14.5442 20.7359L12.2904 25.3027L15.8773 27.0729ZM11.3597 30.3552C13.3139 30.0712 15.0033 28.8438 15.8773 27.0729L12.2904 25.3027C11.999 25.8929 11.4359 26.3021 10.7845 26.3967L11.3597 30.3552ZM6.31998 31.0875L11.3597 30.3552L10.7845 26.3967L5.74479 27.129L6.31998 31.0875ZM4.67149 33.6022C4.36615 32.4873 5.0792 31.2678 6.31998 31.0875L5.74479 27.129C1.92941 27.6835 -0.0733318 31.4204 0.813552 34.6588L4.67149 33.6022ZM5.21156 36.5934C4.6434 36.0396 4.49527 35.316 4.67426 34.6485L0.81078 33.6124C0.287567 35.5634 0.732376 37.8132 2.41951 39.4578L5.21156 36.5934ZM8.85831 40.1481L5.21156 36.5934L2.41951 39.4578L6.06626 43.0125L8.85831 40.1481ZM10.4776 42.9365C10.2063 41.8919 9.654 40.9237 8.85831 40.1481L6.06626 43.0125C6.33144 43.271 6.51549 43.5933 6.60607 43.9421L10.4776 42.9365ZM9.72301 48.3837L10.5131 43.7774L6.57062 43.1012L5.78057 47.7075L9.72301 48.3837ZM9.75353 49.2398C9.68746 48.9882 9.66832 48.7025 9.72301 48.3837L5.78057 47.7075C5.62935 48.5892 5.67362 49.4518 5.88467 50.2556L9.75353 49.2398ZM9.72301 50.4782L9.79032 50.0858L5.84788 49.4096L5.78057 49.8021L9.72301 50.4782ZM12.6249 52.5866C11.1576 53.358 9.44279 52.112 9.72301 50.4782L5.78057 49.8021C4.93991 54.7035 10.0845 58.4413 14.4863 56.1271L12.6249 52.5866ZM17.1325 50.2168L12.6249 52.5866L14.4863 56.1271L18.9939 53.7573L17.1325 50.2168ZM22.7166 50.2168C20.9687 49.2978 18.8805 49.2978 17.1325 50.2168L18.9939 53.7573C19.5766 53.451 20.2726 53.451 20.8553 53.7573L22.7166 50.2168ZM27.2243 52.5866L22.7166 50.2168L20.8553 53.7573L25.3629 56.1271L27.2243 52.5866ZM30.1262 50.4782C30.4064 52.1121 28.6915 53.358 27.2243 52.5866L25.3629 56.1271C29.7647 58.4413 34.9093 54.7035 34.0686 49.8021L30.1262 50.4782ZM30.0589 50.0858L30.1262 50.4782L34.0686 49.8021L34.0013 49.4096L30.0589 50.0858ZM30.1262 48.3837C30.1809 48.7025 30.1617 48.9882 30.0956 49.2398L33.9645 50.2556C34.1756 49.4518 34.2198 48.5892 34.0686 47.7075L30.1262 48.3837ZM29.3361 43.7774L30.1262 48.3837L34.0686 47.7075L33.2786 43.1012L29.3361 43.7774ZM30.9909 40.1481C30.1952 40.9237 29.6429 41.8919 29.3716 42.9365L33.2431 43.9421C33.3337 43.5933 33.5177 43.271 33.7829 43.0125L30.9909 40.1481ZM34.6376 36.5934L30.9909 40.1481L33.7829 43.0125L37.4297 39.4578L34.6376 36.5934ZM35.1749 34.6485C35.3539 35.316 35.2058 36.0396 34.6376 36.5934L37.4297 39.4578C39.1168 37.8132 39.5616 35.5634 39.0384 33.6124L35.1749 34.6485ZM33.5292 31.0875C34.77 31.2678 35.483 32.4873 35.1777 33.6022L39.0356 34.6588C39.9225 31.4204 37.9198 27.6835 34.1044 27.1291L33.5292 31.0875ZM28.4895 30.3552L33.5292 31.0875L34.1044 27.1291L29.0647 26.3967L28.4895 30.3552ZM23.9719 27.0729C24.8458 28.8438 26.5352 30.0712 28.4895 30.3552L29.0647 26.3967C28.4133 26.3021 27.8501 25.8929 27.5588 25.3027L23.9719 27.0729ZM21.7181 22.5062L23.9719 27.0729L27.5588 25.3027L25.305 20.7359L21.7181 22.5062Z" fill="white" mask="url(#path-3-outside-2_1_2031)"/>
<mask id="path-5-outside-3_1_2031" maskUnits="userSpaceOnUse" x="79.6032" y="17.3913" width="39" height="40" fill="black">
<rect fill="white" x="79.6032" y="17.3913" width="39" height="40"/>
<path fill-rule="evenodd" clip-rule="evenodd" d="M102.512 21.6211C101.044 18.6481 96.8049 18.6481 95.3376 21.6211L93.0838 26.1878C92.5012 27.3684 91.3749 28.1866 90.0721 28.376L85.0324 29.1083C82.5043 29.4756 81.1464 31.9538 81.7425 34.1305C81.3914 35.4397 81.6879 36.9264 82.8155 38.0256L86.4623 41.5803C86.9927 42.0973 87.3609 42.7426 87.5418 43.4393L86.7518 48.0456C86.6488 48.6459 86.6805 49.22 86.8191 49.7477L86.7518 50.1402C86.1913 53.4078 89.6211 55.8996 92.5556 54.3569L97.0632 51.9871C98.2285 51.3744 99.6207 51.3744 100.786 51.9871L105.294 54.3569C108.228 55.8996 111.658 53.4078 111.097 50.1402L111.03 49.7477C111.169 49.22 111.2 48.6459 111.097 48.0456L110.307 43.4393C110.488 42.7426 110.856 42.0973 111.387 41.5803L115.034 38.0256C116.161 36.9264 116.458 35.4397 116.107 34.1305C116.703 31.9538 115.345 29.4756 112.817 29.1083L107.777 28.376C106.474 28.1866 105.348 27.3684 104.765 26.1878L102.512 21.6211Z"/>
</mask>
<path fill-rule="evenodd" clip-rule="evenodd" d="M102.512 21.6211C101.044 18.6481 96.8049 18.6481 95.3376 21.6211L93.0838 26.1878C92.5012 27.3684 91.3749 28.1866 90.0721 28.376L85.0324 29.1083C82.5043 29.4756 81.1464 31.9538 81.7425 34.1305C81.3914 35.4397 81.6879 36.9264 82.8155 38.0256L86.4623 41.5803C86.9927 42.0973 87.3609 42.7426 87.5418 43.4393L86.7518 48.0456C86.6488 48.6459 86.6805 49.22 86.8191 49.7477L86.7518 50.1402C86.1913 53.4078 89.6211 55.8996 92.5556 54.3569L97.0632 51.9871C98.2285 51.3744 99.6207 51.3744 100.786 51.9871L105.294 54.3569C108.228 55.8996 111.658 53.4078 111.097 50.1402L111.03 49.7477C111.169 49.22 111.2 48.6459 111.097 48.0456L110.307 43.4393C110.488 42.7426 110.856 42.0973 111.387 41.5803L115.034 38.0256C116.161 36.9264 116.458 35.4397 116.107 34.1305C116.703 31.9538 115.345 29.4756 112.817 29.1083L107.777 28.376C106.474 28.1866 105.348 27.3684 104.765 26.1878L102.512 21.6211Z" fill="#7A54FD"/>
<path d="M95.3376 21.6211L97.1311 22.5062V22.5062L95.3376 21.6211ZM102.512 21.6211L100.718 22.5062V22.5062L102.512 21.6211ZM93.0838 26.1878L94.8773 27.0729L93.0838 26.1878ZM90.0721 28.376L89.7845 26.3967L90.0721 28.376ZM85.0324 29.1083L85.32 31.0875L85.0324 29.1083ZM81.7425 34.1305L83.6743 34.6485L83.8147 34.125L83.6715 33.6022L81.7425 34.1305ZM82.8155 38.0256L81.4195 39.4578H81.4195L82.8155 38.0256ZM86.4623 41.5803L87.8583 40.1481L86.4623 41.5803ZM87.5418 43.4393L89.5131 43.7774L89.5858 43.3531L89.4776 42.9365L87.5418 43.4393ZM86.7518 48.0456L84.7806 47.7075V47.7075L86.7518 48.0456ZM86.8191 49.7477L88.7903 50.0858L88.8635 49.6588L88.7535 49.2398L86.8191 49.7477ZM86.7518 50.1402L84.7806 49.8021H84.7806L86.7518 50.1402ZM92.5556 54.3569L91.6249 52.5866L92.5556 54.3569ZM97.0632 51.9871L97.9939 53.7573L97.9939 53.7573L97.0632 51.9871ZM100.786 51.9871L99.8553 53.7573H99.8553L100.786 51.9871ZM105.294 54.3569L106.224 52.5866H106.224L105.294 54.3569ZM111.097 50.1402L113.069 49.8021V49.8021L111.097 50.1402ZM111.03 49.7477L109.096 49.2398L108.986 49.6588L109.059 50.0858L111.03 49.7477ZM111.097 48.0456L109.126 48.3837V48.3837L111.097 48.0456ZM110.307 43.4393L108.372 42.9365L108.263 43.3531L108.336 43.7774L110.307 43.4393ZM111.387 41.5803L112.783 43.0125L112.783 43.0125L111.387 41.5803ZM115.034 38.0256L113.638 36.5934L115.034 38.0256ZM116.107 34.1305L114.178 33.6022L114.035 34.125L114.175 34.6485L116.107 34.1305ZM112.817 29.1083L113.104 27.1291H113.104L112.817 29.1083ZM107.777 28.376L108.065 26.3967L107.777 28.376ZM104.765 26.1878L106.559 25.3027V25.3027L104.765 26.1878ZM97.1311 22.5062C97.8647 21.0197 99.9844 21.0197 100.718 22.5062L104.305 20.7359C102.104 16.2764 95.7451 16.2765 93.5442 20.7359L97.1311 22.5062ZM94.8773 27.0729L97.1311 22.5062L93.5442 20.7359L91.2904 25.3027L94.8773 27.0729ZM90.3597 30.3552C92.3139 30.0712 94.0033 28.8438 94.8773 27.0729L91.2904 25.3027C90.999 25.8929 90.4359 26.3021 89.7845 26.3967L90.3597 30.3552ZM85.32 31.0875L90.3597 30.3552L89.7845 26.3967L84.7448 27.129L85.32 31.0875ZM83.6715 33.6022C83.3661 32.4873 84.0792 31.2678 85.32 31.0875L84.7448 27.129C80.9294 27.6835 78.9267 31.4204 79.8136 34.6588L83.6715 33.6022ZM84.2116 36.5934C83.6434 36.0396 83.4953 35.316 83.6743 34.6485L79.8108 33.6124C79.2876 35.5634 79.7324 37.8132 81.4195 39.4578L84.2116 36.5934ZM87.8583 40.1481L84.2116 36.5934L81.4195 39.4578L85.0663 43.0125L87.8583 40.1481ZM89.4776 42.9365C89.2063 41.8919 88.654 40.9237 87.8583 40.1481L85.0663 43.0125C85.3314 43.271 85.5155 43.5933 85.6061 43.9421L89.4776 42.9365ZM88.723 48.3837L89.5131 43.7774L85.5706 43.1012L84.7806 47.7075L88.723 48.3837ZM88.7535 49.2398C88.6875 48.9882 88.6683 48.7025 88.723 48.3837L84.7806 47.7075C84.6293 48.5892 84.6736 49.4518 84.8847 50.2556L88.7535 49.2398ZM88.723 50.4782L88.7903 50.0858L84.8479 49.4096L84.7806 49.8021L88.723 50.4782ZM91.6249 52.5866C90.1576 53.358 88.4428 52.112 88.723 50.4782L84.7806 49.8021C83.9399 54.7035 89.0845 58.4413 93.4863 56.1271L91.6249 52.5866ZM96.1325 50.2168L91.6249 52.5866L93.4863 56.1271L97.9939 53.7573L96.1325 50.2168ZM101.717 50.2168C99.9687 49.2978 97.8805 49.2978 96.1325 50.2168L97.9939 53.7573C98.5766 53.451 99.2726 53.451 99.8553 53.7573L101.717 50.2168ZM106.224 52.5866L101.717 50.2168L99.8553 53.7573L104.363 56.1271L106.224 52.5866ZM109.126 50.4782C109.406 52.1121 107.692 53.358 106.224 52.5866L104.363 56.1271C108.765 58.4413 113.909 54.7035 113.069 49.8021L109.126 50.4782ZM109.059 50.0858L109.126 50.4782L113.069 49.8021L113.001 49.4096L109.059 50.0858ZM109.126 48.3837C109.181 48.7025 109.162 48.9882 109.096 49.2398L112.965 50.2556C113.176 49.4518 113.22 48.5892 113.069 47.7075L109.126 48.3837ZM108.336 43.7774L109.126 48.3837L113.069 47.7075L112.279 43.1012L108.336 43.7774ZM109.991 40.1481C109.195 40.9237 108.643 41.8919 108.372 42.9365L112.243 43.9421C112.334 43.5933 112.518 43.271 112.783 43.0125L109.991 40.1481ZM113.638 36.5934L109.991 40.1481L112.783 43.0125L116.43 39.4578L113.638 36.5934ZM114.175 34.6485C114.354 35.316 114.206 36.0396 113.638 36.5934L116.43 39.4578C118.117 37.8132 118.562 35.5634 118.038 33.6124L114.175 34.6485ZM112.529 31.0875C113.77 31.2678 114.483 32.4873 114.178 33.6022L118.036 34.6588C118.923 31.4204 116.92 27.6835 113.104 27.1291L112.529 31.0875ZM107.49 30.3552L112.529 31.0875L113.104 27.1291L108.065 26.3967L107.49 30.3552ZM102.972 27.0729C103.846 28.8438 105.535 30.0712 107.49 30.3552L108.065 26.3967C107.413 26.3021 106.85 25.8929 106.559 25.3027L102.972 27.0729ZM100.718 22.5062L102.972 27.0729L106.559 25.3027L104.305 20.7359L100.718 22.5062Z" fill="white" mask="url(#path-5-outside-3_1_2031)"/>
</svg>
