<svg width="126" height="64" viewBox="0 0 126 64" fill="none" xmlns="http://www.w3.org/2000/svg">
<mask id="path-1-outside-1_1_1981" maskUnits="userSpaceOnUse" x="39.1512" y="3.38581" width="48" height="49" fill="black">
<rect fill="white" x="39.1512" y="3.38581" width="48" height="49"/>
<path fill-rule="evenodd" clip-rule="evenodd" d="M66.4421 7.61555C64.9748 4.64257 60.7354 4.64256 59.2682 7.61555L55.6601 14.9264C55.0774 16.1069 53.9511 16.9252 52.6483 17.1145L44.5803 18.2869C41.9717 18.6659 40.609 21.2925 41.3534 23.5162C40.9096 24.8745 41.1745 26.4642 42.3635 27.6231L48.2015 33.3138C48.6915 33.7914 49.043 34.3785 49.2364 35.0143L47.9737 42.3762C47.8605 43.0367 47.9102 43.6655 48.0859 44.2357L47.9737 44.8897C47.4133 48.1574 50.843 50.6492 53.7775 49.1064L60.9937 45.3126C62.159 44.7 63.5512 44.7 64.7165 45.3126L71.9327 49.1064C74.8672 50.6492 78.2969 48.1574 77.7365 44.8897L77.6243 44.2357C77.8 43.6655 77.8498 43.0367 77.7365 42.3762L76.4738 35.0143C76.6672 34.3785 77.0187 33.7914 77.5087 33.3138L83.3467 27.6231C84.5357 26.4642 84.8006 24.8745 84.3568 23.5162C85.1012 21.2925 83.7385 18.6659 81.1299 18.2869L73.0619 17.1145C71.7591 16.9252 70.6328 16.1069 70.0502 14.9264L66.4421 7.61555Z"/>
</mask>
<path fill-rule="evenodd" clip-rule="evenodd" d="M66.4421 7.61555C64.9748 4.64257 60.7354 4.64256 59.2682 7.61555L55.6601 14.9264C55.0774 16.1069 53.9511 16.9252 52.6483 17.1145L44.5803 18.2869C41.9717 18.6659 40.609 21.2925 41.3534 23.5162C40.9096 24.8745 41.1745 26.4642 42.3635 27.6231L48.2015 33.3138C48.6915 33.7914 49.043 34.3785 49.2364 35.0143L47.9737 42.3762C47.8605 43.0367 47.9102 43.6655 48.0859 44.2357L47.9737 44.8897C47.4133 48.1574 50.843 50.6492 53.7775 49.1064L60.9937 45.3126C62.159 44.7 63.5512 44.7 64.7165 45.3126L71.9327 49.1064C74.8672 50.6492 78.2969 48.1574 77.7365 44.8897L77.6243 44.2357C77.8 43.6655 77.8498 43.0367 77.7365 42.3762L76.4738 35.0143C76.6672 34.3785 77.0187 33.7914 77.5087 33.3138L83.3467 27.6231C84.5357 26.4642 84.8006 24.8745 84.3568 23.5162C85.1012 21.2925 83.7385 18.6659 81.1299 18.2869L73.0619 17.1145C71.7591 16.9252 70.6328 16.1069 70.0502 14.9264L66.4421 7.61555Z" fill="url(#paint0_linear_1_1981)"/>
<path d="M59.2682 7.61555L61.0616 8.50068V8.50068L59.2682 7.61555ZM66.4421 7.61555L68.2355 6.73042V6.73042L66.4421 7.61555ZM55.6601 14.9264L53.8666 14.0412V14.0412L55.6601 14.9264ZM52.6483 17.1145L52.3607 15.1353L52.6483 17.1145ZM44.5803 18.2869L44.8679 20.2661H44.8679L44.5803 18.2869ZM41.3534 23.5162L43.2545 24.1374L43.46 23.5086L43.25 22.8813L41.3534 23.5162ZM42.3635 27.6231L43.7595 26.191L42.3635 27.6231ZM48.2015 33.3138L49.5975 31.8817L49.5975 31.8817L48.2015 33.3138ZM49.2364 35.0143L51.2076 35.3524L51.2877 34.8855L51.1499 34.4323L49.2364 35.0143ZM47.9737 42.3762L49.9449 42.7143L47.9737 42.3762ZM48.0859 44.2357L50.0571 44.5738L50.1379 44.1031L49.9972 43.6466L48.0859 44.2357ZM47.9737 44.8897L46.0025 44.5516V44.5516L47.9737 44.8897ZM53.7775 49.1064L54.7082 50.8767L53.7775 49.1064ZM60.9937 45.3126L60.0631 43.5424L60.9937 45.3126ZM64.7165 45.3126L63.7858 47.0829H63.7858L64.7165 45.3126ZM71.9327 49.1064L71.002 50.8767L71.9327 49.1064ZM77.7365 44.8897L75.7653 45.2278V45.2278L77.7365 44.8897ZM77.6243 44.2357L75.713 43.6466L75.5724 44.1031L75.6531 44.5738L77.6243 44.2357ZM77.7365 42.3762L79.7077 42.0382L77.7365 42.3762ZM76.4738 35.0143L74.5604 34.4323L74.4225 34.8855L74.5026 35.3524L76.4738 35.0143ZM77.5087 33.3138L76.1127 31.8817L77.5087 33.3138ZM83.3467 27.6231L84.7428 29.0553V29.0553L83.3467 27.6231ZM84.3568 23.5162L82.4602 22.8813L82.2502 23.5086L82.4557 24.1374L84.3568 23.5162ZM81.1299 18.2869L80.8423 20.2661L81.1299 18.2869ZM73.0619 17.1145L72.7743 19.0938L73.0619 17.1145ZM70.0502 14.9264L68.2567 15.8115V15.8115L70.0502 14.9264ZM61.0616 8.50068C61.7953 7.01419 63.915 7.01419 64.6486 8.50068L68.2355 6.73042C66.0346 2.27094 59.6756 2.27094 57.4747 6.73042L61.0616 8.50068ZM57.4535 15.8115L61.0616 8.50068L57.4747 6.73042L53.8666 14.0412L57.4535 15.8115ZM52.9359 19.0938C54.8902 18.8098 56.5796 17.5824 57.4535 15.8115L53.8666 14.0412C53.5753 14.6315 53.0121 15.0407 52.3607 15.1353L52.9359 19.0938ZM44.8679 20.2661L52.9359 19.0938L52.3607 15.1353L44.2927 16.3077L44.8679 20.2661ZM43.25 22.8813C42.8707 21.7485 43.5869 20.4522 44.8679 20.2661L44.2927 16.3077C40.3565 16.8796 38.3472 20.8366 39.4569 24.1511L43.25 22.8813ZM43.7595 26.191C43.163 25.6095 43.0267 24.8346 43.2545 24.1374L39.4524 22.895C38.7925 24.9143 39.1861 27.3189 40.9675 29.0553L43.7595 26.191ZM49.5975 31.8817L43.7595 26.191L40.9675 29.0553L46.8055 34.746L49.5975 31.8817ZM51.1499 34.4323C50.8599 33.4789 50.3325 32.5981 49.5975 31.8817L46.8055 34.746C47.0505 34.9848 47.2262 35.278 47.3229 35.5963L51.1499 34.4323ZM49.9449 42.7143L51.2076 35.3524L47.2652 34.6762L46.0025 42.0382L49.9449 42.7143ZM49.9972 43.6466C49.9136 43.3754 49.8849 43.0642 49.9449 42.7143L46.0025 42.0382C45.836 43.0093 45.9068 43.9556 46.1746 44.8247L49.9972 43.6466ZM49.9449 45.2278L50.0571 44.5738L46.1147 43.8976L46.0025 44.5516L49.9449 45.2278ZM52.8468 47.3362C51.3796 48.1076 49.6647 46.8616 49.9449 45.2278L46.0025 44.5516C45.1619 49.4531 50.3064 53.1908 54.7082 50.8767L52.8468 47.3362ZM60.0631 43.5424L52.8468 47.3362L54.7082 50.8767L61.9244 47.0829L60.0631 43.5424ZM65.6472 43.5424C63.8992 42.6234 61.811 42.6234 60.0631 43.5424L61.9244 47.0829C62.5071 46.7766 63.2031 46.7766 63.7858 47.0829L65.6472 43.5424ZM72.8634 47.3362L65.6472 43.5424L63.7858 47.0829L71.002 50.8767L72.8634 47.3362ZM75.7653 45.2278C76.0455 46.8616 74.3306 48.1076 72.8634 47.3362L71.002 50.8767C75.4038 53.1908 80.5484 49.4531 79.7077 44.5516L75.7653 45.2278ZM75.6531 44.5738L75.7653 45.2278L79.7077 44.5516L79.5955 43.8976L75.6531 44.5738ZM75.7653 42.7143C75.8253 43.0642 75.7966 43.3754 75.713 43.6466L79.5356 44.8247C79.8034 43.9556 79.8743 43.0093 79.7077 42.0382L75.7653 42.7143ZM74.5026 35.3524L75.7653 42.7143L79.7077 42.0382L78.445 34.6762L74.5026 35.3524ZM76.1127 31.8817C75.3777 32.5981 74.8503 33.4789 74.5604 34.4323L78.3873 35.5963C78.4841 35.278 78.6597 34.9848 78.9047 34.746L76.1127 31.8817ZM81.9507 26.191L76.1127 31.8817L78.9047 34.746L84.7428 29.0553L81.9507 26.191ZM82.4557 24.1374C82.6835 24.8346 82.5472 25.6095 81.9507 26.191L84.7428 29.0553C86.5241 27.3189 86.9177 24.9143 86.2579 22.895L82.4557 24.1374ZM80.8423 20.2661C82.1233 20.4522 82.8395 21.7485 82.4602 22.8813L86.2533 24.1511C87.363 20.8366 85.3538 16.8796 81.4175 16.3077L80.8423 20.2661ZM72.7743 19.0938L80.8423 20.2661L81.4175 16.3077L73.3495 15.1353L72.7743 19.0938ZM68.2567 15.8115C69.1307 17.5824 70.8201 18.8098 72.7743 19.0938L73.3495 15.1353C72.6981 15.0407 72.135 14.6315 71.8436 14.0412L68.2567 15.8115ZM64.6486 8.50068L68.2567 15.8115L71.8436 14.0412L68.2355 6.73042L64.6486 8.50068Z" fill="white" mask="url(#path-1-outside-1_1_1981)"/>
<g filter="url(#filter0_d_1_1981)">
<path d="M59.4415 7.64766C60.9088 4.67468 65.1482 4.67468 66.6154 7.64766L70.2235 14.9585C70.8062 16.1391 71.9324 16.9573 73.2353 17.1467L81.3032 18.319C84.5841 18.7957 85.8942 22.8276 83.5201 25.1418L77.6821 30.8325C76.7393 31.7514 76.3091 33.0754 76.5317 34.373L77.9098 42.4084C78.4703 45.676 75.0406 48.1678 72.106 46.6251L64.8898 42.8313C63.7245 42.2186 62.3324 42.2186 61.1671 42.8313L53.9509 46.6251C51.0164 48.1678 47.5867 45.676 48.1471 42.4084L49.5253 34.373C49.7478 33.0754 49.3176 31.7514 48.3749 30.8325L42.5368 25.1418C40.1628 22.8276 41.4728 18.7957 44.7537 18.319L52.8217 17.1467C54.1245 16.9573 55.2508 16.1391 55.8334 14.9585L59.4415 7.64766Z" fill="url(#paint1_linear_1_1981)"/>
</g>
<mask id="path-4-outside-2_1_1981" maskUnits="userSpaceOnUse" x="3.60315" y="20.3913" width="39" height="40" fill="black">
<rect fill="white" x="3.60315" y="20.3913" width="39" height="40"/>
<path fill-rule="evenodd" clip-rule="evenodd" d="M26.5115 24.621C25.0442 21.648 20.8048 21.648 19.3376 24.621L17.0838 29.1878C16.5011 30.3683 15.3749 31.1866 14.072 31.3759L9.03232 32.1082C6.50425 32.4756 5.14635 34.9538 5.74246 37.1304C5.39136 38.4397 5.68783 39.9264 6.81547 41.0256L10.4622 44.5803C10.9927 45.0973 11.3608 45.7426 11.5418 46.4392L10.7517 51.0456C10.6488 51.6458 10.6805 52.22 10.819 52.7477L10.7517 53.1401C10.1913 56.4077 13.621 58.8996 16.5555 57.3568L21.0632 54.987C22.2285 54.3744 23.6206 54.3744 24.7859 54.987L29.2935 57.3568C32.228 58.8996 35.6578 56.4077 35.0973 53.1401L35.03 52.7477C35.1686 52.22 35.2003 51.6458 35.0973 51.0456L34.3073 46.4392C34.4882 45.7426 34.8564 45.0973 35.3868 44.5803L39.0336 41.0256C40.1612 39.9264 40.4577 38.4397 40.1066 37.1304C40.7027 34.9538 39.3448 32.4756 36.8167 32.1082L31.777 31.3759C30.4742 31.1866 29.3479 30.3683 28.7653 29.1877L26.5115 24.621Z"/>
</mask>
<path fill-rule="evenodd" clip-rule="evenodd" d="M26.5115 24.621C25.0442 21.648 20.8048 21.648 19.3376 24.621L17.0838 29.1878C16.5011 30.3683 15.3749 31.1866 14.072 31.3759L9.03232 32.1082C6.50425 32.4756 5.14635 34.9538 5.74246 37.1304C5.39136 38.4397 5.68783 39.9264 6.81547 41.0256L10.4622 44.5803C10.9927 45.0973 11.3608 45.7426 11.5418 46.4392L10.7517 51.0456C10.6488 51.6458 10.6805 52.22 10.819 52.7477L10.7517 53.1401C10.1913 56.4077 13.621 58.8996 16.5555 57.3568L21.0632 54.987C22.2285 54.3744 23.6206 54.3744 24.7859 54.987L29.2935 57.3568C32.228 58.8996 35.6578 56.4077 35.0973 53.1401L35.03 52.7477C35.1686 52.22 35.2003 51.6458 35.0973 51.0456L34.3073 46.4392C34.4882 45.7426 34.8564 45.0973 35.3868 44.5803L39.0336 41.0256C40.1612 39.9264 40.4577 38.4397 40.1066 37.1304C40.7027 34.9538 39.3448 32.4756 36.8167 32.1082L31.777 31.3759C30.4742 31.1866 29.3479 30.3683 28.7653 29.1877L26.5115 24.621Z" fill="url(#paint2_linear_1_1981)"/>
<path d="M19.3376 24.621L21.1311 25.5062V25.5062L19.3376 24.621ZM26.5115 24.621L24.718 25.5061V25.5061L26.5115 24.621ZM17.0838 29.1878L18.8772 30.0729L17.0838 29.1878ZM14.072 31.3759L13.7844 29.3967L14.072 31.3759ZM9.03232 32.1082L9.31992 34.0874L9.03232 32.1082ZM5.74246 37.1304L7.6742 37.6485L7.8146 37.125L7.67143 36.6022L5.74246 37.1304ZM6.81547 41.0256L5.41945 42.4577H5.41945L6.81547 41.0256ZM10.4622 44.5803L11.8582 43.1481L10.4622 44.5803ZM11.5418 46.4392L13.513 46.7773L13.5858 46.3531L13.4775 45.9365L11.5418 46.4392ZM10.7517 51.0456L8.78051 50.7075V50.7075L10.7517 51.0456ZM10.819 52.7477L12.7903 53.0858L12.8635 52.6588L12.7535 52.2398L10.819 52.7477ZM10.7517 53.1401L8.78051 52.802H8.78051L10.7517 53.1401ZM16.5555 57.3568L15.6249 55.5866L16.5555 57.3568ZM21.0632 54.987L21.9938 56.7573L21.9939 56.7573L21.0632 54.987ZM24.7859 54.987L23.8552 56.7573H23.8552L24.7859 54.987ZM29.2935 57.3568L30.2242 55.5866H30.2242L29.2935 57.3568ZM35.0973 53.1401L37.0685 52.802V52.802L35.0973 53.1401ZM35.03 52.7477L33.0956 52.2398L32.9856 52.6588L33.0588 53.0858L35.03 52.7477ZM35.0973 51.0456L33.1261 51.3836V51.3836L35.0973 51.0456ZM34.3073 46.4392L32.3715 45.9365L32.2633 46.3531L32.3361 46.7773L34.3073 46.4392ZM35.3868 44.5803L36.7829 46.0124L36.7829 46.0124L35.3868 44.5803ZM39.0336 41.0256L37.6376 39.5934L39.0336 41.0256ZM40.1066 37.1304L38.1776 36.6022L38.0345 37.1249L38.1749 37.6485L40.1066 37.1304ZM36.8167 32.1082L37.1043 30.129H37.1043L36.8167 32.1082ZM31.777 31.3759L32.0646 29.3967L31.777 31.3759ZM28.7653 29.1877L30.5588 28.3026V28.3026L28.7653 29.1877ZM21.1311 25.5062C21.8647 24.0197 23.9844 24.0197 24.718 25.5061L28.3049 23.7359C26.1041 19.2764 19.745 19.2764 17.5441 23.7359L21.1311 25.5062ZM18.8772 30.0729L21.1311 25.5062L17.5441 23.7359L15.2903 28.3026L18.8772 30.0729ZM14.3596 33.3551C16.3139 33.0712 18.0033 31.8437 18.8772 30.0729L15.2903 28.3026C14.999 28.8929 14.4358 29.302 13.7844 29.3967L14.3596 33.3551ZM9.31992 34.0874L14.3596 33.3551L13.7844 29.3967L8.74473 30.129L9.31992 34.0874ZM7.67143 36.6022C7.36609 35.4872 8.07914 34.2677 9.31992 34.0874L8.74473 30.129C4.92935 30.6834 2.92661 34.4203 3.81349 37.6587L7.67143 36.6022ZM8.2115 39.5934C7.64334 39.0396 7.49521 38.3159 7.6742 37.6485L3.81072 36.6124C3.28751 38.5634 3.73232 40.8132 5.41945 42.4577L8.2115 39.5934ZM11.8582 43.1481L8.2115 39.5934L5.41945 42.4577L9.0662 46.0124L11.8582 43.1481ZM13.4775 45.9365C13.2062 44.8919 12.6539 43.9237 11.8582 43.1481L9.0662 46.0124C9.33138 46.2709 9.51543 46.5933 9.606 46.942L13.4775 45.9365ZM12.7229 51.3836L13.513 46.7773L9.57056 46.1011L8.78051 50.7075L12.7229 51.3836ZM12.7535 52.2398C12.6874 51.9881 12.6683 51.7025 12.7229 51.3836L8.78051 50.7075C8.62928 51.5892 8.67355 52.4518 8.88461 53.2556L12.7535 52.2398ZM12.7229 53.4782L12.7903 53.0858L8.84782 52.4096L8.78051 52.802L12.7229 53.4782ZM15.6249 55.5866C14.1576 56.3579 12.4427 55.112 12.7229 53.4782L8.78051 52.802C7.93985 57.7035 13.0845 61.4412 17.4862 59.1271L15.6249 55.5866ZM20.1325 53.2168L15.6249 55.5866L17.4862 59.1271L21.9938 56.7573L20.1325 53.2168ZM25.7166 53.2168C23.9686 52.2978 21.8804 52.2978 20.1325 53.2168L21.9939 56.7573C22.5765 56.451 23.2726 56.451 23.8552 56.7573L25.7166 53.2168ZM30.2242 55.5866L25.7166 53.2168L23.8552 56.7573L28.3629 59.1271L30.2242 55.5866ZM33.1261 53.4782C33.4063 55.112 31.6915 56.3579 30.2242 55.5866L28.3628 59.1271C32.7646 61.4412 37.9092 57.7035 37.0685 52.802L33.1261 53.4782ZM33.0588 53.0858L33.1261 53.4782L37.0685 52.802L37.0012 52.4096L33.0588 53.0858ZM33.1261 51.3836C33.1808 51.7025 33.1617 51.9881 33.0956 52.2398L36.9645 53.2556C37.1755 52.4518 37.2198 51.5892 37.0685 50.7075L33.1261 51.3836ZM32.3361 46.7773L33.1261 51.3836L37.0685 50.7075L36.2785 46.1011L32.3361 46.7773ZM33.9908 43.1481C33.1951 43.9237 32.6428 44.8919 32.3715 45.9365L36.2431 46.942C36.3336 46.5933 36.5177 46.2709 36.7829 46.0124L33.9908 43.1481ZM37.6376 39.5934L33.9908 43.1481L36.7829 46.0124L40.4296 42.4577L37.6376 39.5934ZM38.1749 37.6485C38.3539 38.3159 38.2057 39.0396 37.6376 39.5934L40.4296 42.4577C42.1167 40.8132 42.5616 38.5634 42.0383 36.6124L38.1749 37.6485ZM36.5291 34.0874C37.7699 34.2677 38.483 35.4872 38.1776 36.6022L42.0356 37.6587C42.9225 34.4203 40.9197 30.6834 37.1043 30.129L36.5291 34.0874ZM31.4894 33.3551L36.5291 34.0874L37.1043 30.129L32.0646 29.3967L31.4894 33.3551ZM26.9718 30.0729C27.8458 31.8437 29.5352 33.0712 31.4894 33.3551L32.0646 29.3967C31.4132 29.302 30.8501 28.8929 30.5588 28.3026L26.9718 30.0729ZM24.718 25.5061L26.9718 30.0729L30.5588 28.3026L28.3049 23.7359L24.718 25.5061Z" fill="white" mask="url(#path-4-outside-2_1_1981)"/>
<g filter="url(#filter1_d_1_1981)">
<path d="M19.4821 24.6477C20.9494 21.6747 25.1887 21.6747 26.656 24.6477L28.9098 29.2144C29.4925 30.395 30.6187 31.2133 31.9216 31.4026L36.9613 32.1349C40.2421 32.6116 41.5522 36.6435 39.1781 38.9576L35.5314 42.5124C34.5886 43.4313 34.1584 44.7553 34.381 46.0529L35.2418 51.0722C35.8023 54.3398 32.3726 56.8317 29.438 55.2889L24.9304 52.9191C23.7651 52.3065 22.373 52.3065 21.2077 52.9191L16.7 55.2889C13.7655 56.8317 10.3358 54.3398 10.8962 51.0722L11.7571 46.0529C11.9797 44.7553 11.5495 43.4313 10.6067 42.5124L6.95999 38.9577C4.58592 36.6435 5.89596 32.6116 9.17684 32.1349L14.2165 31.4026C15.5194 31.2133 16.6456 30.395 17.2283 29.2144L19.4821 24.6477Z" fill="url(#paint3_linear_1_1981)"/>
</g>
<mask id="path-7-outside-3_1_1981" maskUnits="userSpaceOnUse" x="82.6032" y="20.3913" width="39" height="40" fill="black">
<rect fill="white" x="82.6032" y="20.3913" width="39" height="40"/>
<path fill-rule="evenodd" clip-rule="evenodd" d="M105.512 24.621C104.044 21.648 99.8049 21.648 98.3377 24.621L96.0839 29.1878C95.5012 30.3683 94.3749 31.1866 93.0721 31.3759L88.0324 32.1082C85.5043 32.4756 84.1464 34.9538 84.7426 37.1304C84.3914 38.4397 84.6879 39.9264 85.8156 41.0256L89.4623 44.5803C89.9928 45.0973 90.3609 45.7426 90.5419 46.4392L89.7518 51.0456C89.6489 51.6458 89.6806 52.22 89.8191 52.7477L89.7518 53.1401C89.1914 56.4077 92.6211 58.8996 95.5556 57.3568L100.063 54.987C101.229 54.3744 102.621 54.3744 103.786 54.987L108.294 57.3568C111.228 58.8996 114.658 56.4077 114.097 53.1401L114.03 52.7477C114.169 52.22 114.2 51.6458 114.097 51.0456L113.307 46.4392C113.488 45.7426 113.856 45.0973 114.387 44.5803L118.034 41.0256C119.161 39.9264 119.458 38.4397 119.107 37.1304C119.703 34.9538 118.345 32.4756 115.817 32.1082L110.777 31.3759C109.474 31.1866 108.348 30.3683 107.765 29.1877L105.512 24.621Z"/>
</mask>
<path fill-rule="evenodd" clip-rule="evenodd" d="M105.512 24.621C104.044 21.648 99.8049 21.648 98.3377 24.621L96.0839 29.1878C95.5012 30.3683 94.3749 31.1866 93.0721 31.3759L88.0324 32.1082C85.5043 32.4756 84.1464 34.9538 84.7426 37.1304C84.3914 38.4397 84.6879 39.9264 85.8156 41.0256L89.4623 44.5803C89.9928 45.0973 90.3609 45.7426 90.5419 46.4392L89.7518 51.0456C89.6489 51.6458 89.6806 52.22 89.8191 52.7477L89.7518 53.1401C89.1914 56.4077 92.6211 58.8996 95.5556 57.3568L100.063 54.987C101.229 54.3744 102.621 54.3744 103.786 54.987L108.294 57.3568C111.228 58.8996 114.658 56.4077 114.097 53.1401L114.03 52.7477C114.169 52.22 114.2 51.6458 114.097 51.0456L113.307 46.4392C113.488 45.7426 113.856 45.0973 114.387 44.5803L118.034 41.0256C119.161 39.9264 119.458 38.4397 119.107 37.1304C119.703 34.9538 118.345 32.4756 115.817 32.1082L110.777 31.3759C109.474 31.1866 108.348 30.3683 107.765 29.1877L105.512 24.621Z" fill="url(#paint4_linear_1_1981)"/>
<path d="M98.3377 24.621L100.131 25.5062V25.5062L98.3377 24.621ZM105.512 24.621L103.718 25.5061V25.5061L105.512 24.621ZM96.0839 29.1878L97.8773 30.0729L96.0839 29.1878ZM93.0721 31.3759L92.7845 29.3967L93.0721 31.3759ZM88.0324 32.1082L88.32 34.0874L88.0324 32.1082ZM84.7426 37.1304L86.6743 37.6485L86.8147 37.125L86.6715 36.6022L84.7426 37.1304ZM85.8156 41.0256L84.4195 42.4577H84.4195L85.8156 41.0256ZM89.4623 44.5803L90.8583 43.1481L89.4623 44.5803ZM90.5419 46.4392L92.5131 46.7773L92.5858 46.3531L92.4776 45.9365L90.5419 46.4392ZM89.7518 51.0456L87.7806 50.7075V50.7075L89.7518 51.0456ZM89.8191 52.7477L91.7903 53.0858L91.8636 52.6588L91.7536 52.2398L89.8191 52.7477ZM89.7518 53.1401L87.7806 52.802H87.7806L89.7518 53.1401ZM95.5556 57.3568L94.6249 55.5866L95.5556 57.3568ZM100.063 54.987L100.994 56.7573L100.994 56.7573L100.063 54.987ZM103.786 54.987L102.855 56.7573H102.855L103.786 54.987ZM108.294 57.3568L109.224 55.5866H109.224L108.294 57.3568ZM114.097 53.1401L116.069 52.802V52.802L114.097 53.1401ZM114.03 52.7477L112.096 52.2398L111.986 52.6588L112.059 53.0858L114.03 52.7477ZM114.097 51.0456L112.126 51.3836V51.3836L114.097 51.0456ZM113.307 46.4392L111.372 45.9365L111.263 46.3531L111.336 46.7773L113.307 46.4392ZM114.387 44.5803L115.783 46.0124L115.783 46.0124L114.387 44.5803ZM118.034 41.0256L116.638 39.5934L118.034 41.0256ZM119.107 37.1304L117.178 36.6022L117.035 37.1249L117.175 37.6485L119.107 37.1304ZM115.817 32.1082L116.104 30.129H116.104L115.817 32.1082ZM110.777 31.3759L111.065 29.3967L110.777 31.3759ZM107.765 29.1877L109.559 28.3026V28.3026L107.765 29.1877ZM100.131 25.5062C100.865 24.0197 102.984 24.0197 103.718 25.5061L107.305 23.7359C105.104 19.2764 98.7451 19.2764 96.5442 23.7359L100.131 25.5062ZM97.8773 30.0729L100.131 25.5062L96.5442 23.7359L94.2904 28.3026L97.8773 30.0729ZM93.3597 33.3551C95.314 33.0712 97.0034 31.8437 97.8773 30.0729L94.2904 28.3026C93.9991 28.8929 93.4359 29.302 92.7845 29.3967L93.3597 33.3551ZM88.32 34.0874L93.3597 33.3551L92.7845 29.3967L87.7448 30.129L88.32 34.0874ZM86.6715 36.6022C86.3662 35.4872 87.0792 34.2677 88.32 34.0874L87.7448 30.129C83.9294 30.6834 81.9267 34.4203 82.8136 37.6587L86.6715 36.6022ZM87.2116 39.5934C86.6434 39.0396 86.4953 38.3159 86.6743 37.6485L82.8108 36.6124C82.2876 38.5634 82.7324 40.8132 84.4195 42.4577L87.2116 39.5934ZM90.8583 43.1481L87.2116 39.5934L84.4195 42.4577L88.0663 46.0124L90.8583 43.1481ZM92.4776 45.9365C92.2063 44.8919 91.654 43.9237 90.8583 43.1481L88.0663 46.0124C88.3315 46.2709 88.5155 46.5933 88.6061 46.942L92.4776 45.9365ZM91.723 51.3836L92.5131 46.7773L88.5707 46.1011L87.7806 50.7075L91.723 51.3836ZM91.7536 52.2398C91.6875 51.9881 91.6684 51.7025 91.723 51.3836L87.7806 50.7075C87.6294 51.5892 87.6736 52.4518 87.8847 53.2556L91.7536 52.2398ZM91.723 53.4782L91.7903 53.0858L87.8479 52.4096L87.7806 52.802L91.723 53.4782ZM94.6249 55.5866C93.1577 56.3579 91.4428 55.112 91.723 53.4782L87.7806 52.802C86.9399 57.7035 92.0845 61.4412 96.4863 59.1271L94.6249 55.5866ZM99.1326 53.2168L94.6249 55.5866L96.4863 59.1271L100.994 56.7573L99.1326 53.2168ZM104.717 53.2168C102.969 52.2978 100.881 52.2978 99.1326 53.2168L100.994 56.7573C101.577 56.451 102.273 56.451 102.855 56.7573L104.717 53.2168ZM109.224 55.5866L104.717 53.2168L102.855 56.7573L107.363 59.1271L109.224 55.5866ZM112.126 53.4782C112.406 55.112 110.692 56.3579 109.224 55.5866L107.363 59.1271C111.765 61.4412 116.909 57.7035 116.069 52.802L112.126 53.4782ZM112.059 53.0858L112.126 53.4782L116.069 52.802L116.001 52.4096L112.059 53.0858ZM112.126 51.3836C112.181 51.7025 112.162 51.9881 112.096 52.2398L115.965 53.2556C116.176 52.4518 116.22 51.5892 116.069 50.7075L112.126 51.3836ZM111.336 46.7773L112.126 51.3836L116.069 50.7075L115.279 46.1011L111.336 46.7773ZM112.991 43.1481C112.195 43.9237 111.643 44.8919 111.372 45.9365L115.243 46.942C115.334 46.5933 115.518 46.2709 115.783 46.0124L112.991 43.1481ZM116.638 39.5934L112.991 43.1481L115.783 46.0124L119.43 42.4577L116.638 39.5934ZM117.175 37.6485C117.354 38.3159 117.206 39.0396 116.638 39.5934L119.43 42.4577C121.117 40.8132 121.562 38.5634 121.038 36.6124L117.175 37.6485ZM115.529 34.0874C116.77 34.2677 117.483 35.4872 117.178 36.6022L121.036 37.6587C121.923 34.4203 119.92 30.6834 116.104 30.129L115.529 34.0874ZM110.49 33.3551L115.529 34.0874L116.104 30.129L111.065 29.3967L110.49 33.3551ZM105.972 30.0729C106.846 31.8437 108.535 33.0712 110.49 33.3551L111.065 29.3967C110.413 29.302 109.85 28.8929 109.559 28.3026L105.972 30.0729ZM103.718 25.5061L105.972 30.0729L109.559 28.3026L107.305 23.7359L103.718 25.5061Z" fill="white" mask="url(#path-7-outside-3_1_1981)"/>
<g filter="url(#filter2_d_1_1981)">
<path d="M98.4821 24.6477C99.9494 21.6747 104.189 21.6747 105.656 24.6477L107.91 29.2144C108.492 30.395 109.619 31.2133 110.922 31.4026L115.961 32.1349C119.242 32.6116 120.552 36.6435 118.178 38.9576L114.531 42.5124C113.589 43.4313 113.158 44.7553 113.381 46.0529L114.242 51.0722C114.802 54.3398 111.373 56.8317 108.438 55.2889L103.93 52.9191C102.765 52.3065 101.373 52.3065 100.208 52.9191L95.7 55.2889C92.7655 56.8317 89.3358 54.3398 89.8962 51.0722L90.7571 46.0529C90.9797 44.7553 90.5495 43.4313 89.6067 42.5124L85.96 38.9577C83.5859 36.6435 84.896 32.6116 88.1768 32.1349L93.2165 31.4026C94.5194 31.2133 95.6456 30.395 96.2283 29.2144L98.4821 24.6477Z" fill="url(#paint5_linear_1_1981)"/>
</g>
<defs>
<filter id="filter0_d_1_1981" x="41.3245" y="5.41793" width="43.4079" height="44.6755" filterUnits="userSpaceOnUse" color-interpolation-filters="sRGB">
<feFlood flood-opacity="0" result="BackgroundImageFix"/>
<feColorMatrix in="SourceAlpha" type="matrix" values="0 0 0 0 0 0 0 0 0 0 0 0 0 0 0 0 0 0 127 0" result="hardAlpha"/>
<feOffset dy="3"/>
<feComposite in2="hardAlpha" operator="out"/>
<feColorMatrix type="matrix" values="0 0 0 0 1 0 0 0 0 0.392 0 0 0 0 0.2 0 0 0 1 0"/>
<feBlend mode="normal" in2="BackgroundImageFix" result="effect1_dropShadow_1_1981"/>
<feBlend mode="normal" in="SourceGraphic" in2="effect1_dropShadow_1_1981" result="shape"/>
</filter>
<filter id="filter1_d_1_1981" x="5.74765" y="22.4179" width="34.6428" height="36.3393" filterUnits="userSpaceOnUse" color-interpolation-filters="sRGB">
<feFlood flood-opacity="0" result="BackgroundImageFix"/>
<feColorMatrix in="SourceAlpha" type="matrix" values="0 0 0 0 0 0 0 0 0 0 0 0 0 0 0 0 0 0 127 0" result="hardAlpha"/>
<feOffset dy="3"/>
<feComposite in2="hardAlpha" operator="out"/>
<feColorMatrix type="matrix" values="0 0 0 0 1 0 0 0 0 0.392 0 0 0 0 0.2 0 0 0 1 0"/>
<feBlend mode="normal" in2="BackgroundImageFix" result="effect1_dropShadow_1_1981"/>
<feBlend mode="normal" in="SourceGraphic" in2="effect1_dropShadow_1_1981" result="shape"/>
</filter>
<filter id="filter2_d_1_1981" x="84.7477" y="22.4179" width="34.6428" height="36.3393" filterUnits="userSpaceOnUse" color-interpolation-filters="sRGB">
<feFlood flood-opacity="0" result="BackgroundImageFix"/>
<feColorMatrix in="SourceAlpha" type="matrix" values="0 0 0 0 0 0 0 0 0 0 0 0 0 0 0 0 0 0 127 0" result="hardAlpha"/>
<feOffset dy="3"/>
<feComposite in2="hardAlpha" operator="out"/>
<feColorMatrix type="matrix" values="0 0 0 0 1 0 0 0 0 0.392 0 0 0 0 0.2 0 0 0 1 0"/>
<feBlend mode="normal" in2="BackgroundImageFix" result="effect1_dropShadow_1_1981"/>
<feBlend mode="normal" in="SourceGraphic" in2="effect1_dropShadow_1_1981" result="shape"/>
</filter>
<linearGradient id="paint0_linear_1_1981" x1="62.855" y1="1.28999" x2="62.855" y2="54.9448" gradientUnits="userSpaceOnUse">
<stop offset="0.25" stop-color="#FFEE37"/>
<stop offset="1" stop-color="#F78A3B"/>
</linearGradient>
<linearGradient id="paint1_linear_1_1981" x1="63.0285" y1="0.379723" x2="63.0285" y2="55.677" gradientUnits="userSpaceOnUse">
<stop offset="0.25" stop-color="#FFEE37"/>
<stop offset="1" stop-color="#F78A3B"/>
</linearGradient>
<linearGradient id="paint2_linear_1_1981" x1="22.9245" y1="19.107" x2="22.9245" y2="62.1313" gradientUnits="userSpaceOnUse">
<stop offset="0.25" stop-color="#FFEE37"/>
<stop offset="1" stop-color="#F78A3B"/>
</linearGradient>
<linearGradient id="paint3_linear_1_1981" x1="23.069" y1="17.3797" x2="23.069" y2="63.4608" gradientUnits="userSpaceOnUse">
<stop offset="0.25" stop-color="#FFEE37"/>
<stop offset="1" stop-color="#F78A3B"/>
</linearGradient>
<linearGradient id="paint4_linear_1_1981" x1="101.925" y1="19.107" x2="101.925" y2="62.1313" gradientUnits="userSpaceOnUse">
<stop offset="0.25" stop-color="#FFEE37"/>
<stop offset="1" stop-color="#F78A3B"/>
</linearGradient>
<linearGradient id="paint5_linear_1_1981" x1="102.069" y1="17.3797" x2="102.069" y2="63.4608" gradientUnits="userSpaceOnUse">
<stop offset="0.25" stop-color="#FFEE37"/>
<stop offset="1" stop-color="#F78A3B"/>
</linearGradient>
</defs>
</svg>
